<svg version="1.1" id="Layer_1" xmlns="http://www.w3.org/2000/svg" xmlns:xlink="http://www.w3.org/1999/xlink" x="0px" y="0px" viewBox="0 0 512 512" style="enable-background:new 0 0 512 512;fill:#F9813A" xml:space="preserve"><g transform="translate(1 1)"> <g> <g> <path d="M255,84.333c-46.933,0-85.333,38.4-85.333,85.333S208.067,255,255,255s85.333-38.4,85.333-85.333 S301.933,84.333,255,84.333z M255,237.933c-37.547,0-68.267-30.72-68.267-68.267c0-37.547,30.72-68.267,68.267-68.267 s68.267,30.72,68.267,68.267C323.267,207.213,292.547,237.933,255,237.933z"></path> <path d="M255,118.467c-28.16,0-51.2,23.04-51.2,51.2c0,5.12,3.413,8.533,8.533,8.533s8.533-3.413,8.533-8.533 c0-18.773,15.36-34.133,34.133-34.133c5.12,0,8.533-3.413,8.533-8.533S260.12,118.467,255,118.467z"></path> <path d="M255-1C161.133-1,84.333,75.8,84.333,169.667c0,46.08,13.653,74.24,33.28,112.64c2.56,5.973,5.973,11.947,9.387,18.773 c47.787,98.133,120.32,204.8,121.173,206.507C249.88,509.293,252.44,511,255,511c2.56,0,5.12-1.707,6.827-4.267 C262.68,505.88,335.213,399.213,383,301.08c3.413-6.827,5.973-12.8,9.387-18.773c19.627-38.4,33.28-66.56,33.28-112.64 C425.667,75.8,348.867-1,255-1z M377.027,273.773c-2.56,6.827-5.973,12.8-9.387,19.627 c-38.4,78.507-93.013,163.84-112.64,192.853C235.373,457.24,180.76,372.76,142.36,293.4c-3.413-5.973-5.973-12.8-9.387-18.773 C114.2,237.08,101.4,211.48,101.4,169.667c0-84.48,69.12-153.6,153.6-153.6s153.6,69.12,153.6,153.6 C408.6,211.48,395.8,237.08,377.027,273.773z"></path> </g> </g></g><g></g><g></g><g></g><g></g><g></g><g></g><g></g><g></g><g></g><g></g><g></g><g></g><g></g><g></g><g></g></svg>